<svg id="visual" viewBox="0 0 900 600" width="900" height="600" xmlns="http://www.w3.org/2000/svg" xmlns:xlink="http://www.w3.org/1999/xlink" version="1.1"><path d="M0 164L21.5 177.8C43 191.7 86 219.3 128.8 228.2C171.7 237 214.3 227 257.2 211.5C300 196 343 175 385.8 167C428.7 159 471.3 164 514.2 176.7C557 189.3 600 209.7 642.8 215.3C685.7 221 728.3 212 771.2 211.7C814 211.3 857 219.7 878.5 223.8L900 228L900 0L878.5 0C857 0 814 0 771.2 0C728.3 0 685.7 0 642.8 0C600 0 557 0 514.2 0C471.3 0 428.7 0 385.8 0C343 0 300 0 257.2 0C214.3 0 171.7 0 128.8 0C86 0 43 0 21.5 0L0 0Z" fill="#6600ff"></path><path d="M0 136L21.5 138.8C43 141.7 86 147.3 128.8 151C171.7 154.7 214.3 156.3 257.2 164.5C300 172.7 343 187.3 385.8 187.7C428.7 188 471.3 174 514.2 163.3C557 152.7 600 145.3 642.8 144.7C685.7 144 728.3 150 771.2 147.5C814 145 857 134 878.5 128.5L900 123L900 0L878.5 0C857 0 814 0 771.2 0C728.3 0 685.7 0 642.8 0C600 0 557 0 514.2 0C471.3 0 428.7 0 385.8 0C343 0 300 0 257.2 0C214.3 0 171.7 0 128.8 0C86 0 43 0 21.5 0L0 0Z" fill="#3326c5"></path><path d="M0 131L21.5 135.7C43 140.3 86 149.7 128.8 153.8C171.7 158 214.3 157 257.2 147.5C300 138 343 120 385.8 112.8C428.7 105.7 471.3 109.3 514.2 114.3C557 119.3 600 125.7 642.8 126.5C685.7 127.3 728.3 122.7 771.2 124.8C814 127 857 136 878.5 140.5L900 145L900 0L878.5 0C857 0 814 0 771.2 0C728.3 0 685.7 0 642.8 0C600 0 557 0 514.2 0C471.3 0 428.7 0 385.8 0C343 0 300 0 257.2 0C214.3 0 171.7 0 128.8 0C86 0 43 0 21.5 0L0 0Z" fill="#172688"></path><path d="M0 96L21.5 93C43 90 86 84 128.8 77.7C171.7 71.3 214.3 64.7 257.2 61.2C300 57.7 343 57.3 385.8 65.3C428.7 73.3 471.3 89.7 514.2 90.5C557 91.3 600 76.7 642.8 69C685.7 61.3 728.3 60.7 771.2 61.2C814 61.7 857 63.3 878.5 64.2L900 65L900 0L878.5 0C857 0 814 0 771.2 0C728.3 0 685.7 0 642.8 0C600 0 557 0 514.2 0C471.3 0 428.7 0 385.8 0C343 0 300 0 257.2 0C214.3 0 171.7 0 128.8 0C86 0 43 0 21.5 0L0 0Z" fill="#161d4b"></path><path d="M0 58L21.5 57.2C43 56.3 86 54.7 128.8 56.2C171.7 57.7 214.3 62.3 257.2 58.5C300 54.7 343 42.3 385.8 43.3C428.7 44.3 471.3 58.7 514.2 65.8C557 73 600 73 642.8 73C685.7 73 728.3 73 771.2 70.7C814 68.3 857 63.7 878.5 61.3L900 59L900 0L878.5 0C857 0 814 0 771.2 0C728.3 0 685.7 0 642.8 0C600 0 557 0 514.2 0C471.3 0 428.7 0 385.8 0C343 0 300 0 257.2 0C214.3 0 171.7 0 128.8 0C86 0 43 0 21.5 0L0 0Z" fill="#151515"></path></svg>