<?xml version="1.0" encoding="UTF-8" standalone="no"?> 
    <!DOCTYPE svg>
    <svg height="100%" stroke-miterlimit="10" style="fill-rule:nonzero;clip-rule:evenodd;stroke-linecap:round;stroke-linejoin:round;" version="1.1" viewBox="0 0 1024 1024" width="100%" xml:space="preserve" xmlns="http://www.w3.org/2000/svg" xmlns:xlink="http://www.w3.org/1999/xlink">
    <g>
        <g opacity="1">
            <path d="M534.61 82.4778C537.617 96.2268 429.506 249.573 414.105 273.597C398.703 297.62 378.464 221.851 321.939 234.213" fill="none" fill-rule="evenodd" opacity="1" stroke="#3043ff" stroke-linecap="round" stroke-linejoin="round" stroke-width="90"/>
            <path d="M938.913 533.856C925.17 536.89 790.906 416.054 766.852 400.7C742.797 385.347 803.068 368.688 790.594 312.188" fill="none" fill-rule="evenodd" opacity="1" stroke="#3043ff" stroke-linecap="round" stroke-linejoin="round" stroke-width="90"/>
            <path d="M493.506 941.139C490.551 927.379 607.133 785.639 622.624 761.674C638.115 737.708 657.848 803.315 714.419 791.165" fill="none" fill-rule="evenodd" opacity="1" stroke="#3043ff" stroke-linecap="round" stroke-linejoin="round" stroke-width="90"/>
            <path d="M92.441 491.164C106.416 489.497 236.397 601.435 258.824 619.081C281.25 636.726 227.566 647.692 234.42 705.146" fill="none" fill-rule="evenodd" opacity="1" stroke="#3043ff" stroke-linecap="round" stroke-linejoin="round" stroke-width="90"/>
        </g>
        <g opacity="1">
            <path d="M63.501 513.636C63.501 420.727 91.6495 334.392 139.884 262.693C147.863 250.833 207.694 262.752 229.416 240.163C252.145 216.527 236.811 158.479 245.962 151.7C320.778 96.2775 413.379 63.501 513.636 63.501C619.087 63.501 696.427 81.7988 773.152 142.531C781.964 149.507 764.918 209.147 786.194 229.799C810.739 253.625 873.698 238.911 880.702 249.511C927.673 320.592 963.772 422.061 963.772 513.636C963.772 609.133 934.034 697.684 883.314 770.534C875.189 782.204 807.197 767.26 782.054 791.997C758.084 815.582 777.012 878.968 765.824 886.549C693.881 935.296 607.084 963.772 513.636 963.772C417.909 963.772 326.18 930.836 253.229 879.891C242.904 872.681 260.803 812.137 235.284 785.508C215.792 765.168 151.753 778.366 144.612 768.542C90.661 694.312 63.501 612.422 63.501 513.636Z" fill="none" fill-rule="evenodd" opacity="1" stroke="#3043ff" stroke-linecap="round" stroke-linejoin="round" stroke-width="90"/>
            <path d="M333.677 369.73C308.054 369.73 290.049 352.033 290.049 329.825C290.049 307.617 307.362 290.267 329.522 290.267C350.644 290.267 369.342 308.311 369.342 333.989L369.342 369.73L333.677 369.73ZM690.669 369.73L655.005 369.73L655.005 333.989C655.005 308.311 673.356 290.267 694.824 290.267C716.985 290.267 734.298 307.617 734.298 329.825C734.298 352.033 715.946 369.73 690.669 369.73ZM369.891 470.707L369.891 553.64L369.891 470.707ZM333.677 654.27L369.342 654.27L369.342 690.011C369.342 715.689 350.644 733.733 329.522 733.733C307.362 733.733 290.049 716.383 290.049 694.175C290.049 672.314 308.054 654.27 333.677 654.27ZM690.669 654.27C715.946 654.27 734.298 672.314 734.298 694.175C734.298 716.383 716.985 733.733 694.824 733.733C673.356 733.733 655.005 715.689 655.005 690.011L655.005 654.27L690.669 654.27ZM370.034 470.707L370.034 481.074L370.034 491.44L370.054 512.317L370.034 532.907L370.034 543.273L370.034 553.64L364.884 553.683L359.733 553.727L354.582 553.77L349.432 553.813L344.281 553.857L339.131 553.9L333.98 553.944L328.83 553.987C319.091 554.074 309.585 555.12 300.406 557.037C291.227 558.955 282.374 561.743 273.942 565.313C265.51 568.884 257.499 573.236 250.002 578.282C242.506 583.327 235.524 589.066 229.151 595.41C222.777 601.754 217.013 608.702 211.951 616.166C206.889 623.629 202.529 631.609 198.967 640.016C195.404 648.422 192.638 657.256 190.763 666.428C188.887 675.599 187.903 685.109 187.903 694.869C187.903 704.498 188.882 713.927 190.75 723.054C192.618 732.182 195.374 741.009 198.929 749.434C202.483 757.86 206.836 765.884 211.896 773.407C216.956 780.93 222.723 787.951 229.107 794.371C235.491 800.79 242.492 806.608 250.019 811.723C257.546 816.839 265.6 821.252 274.088 824.863C282.577 828.474 291.501 831.283 300.77 833.189C310.04 835.094 319.654 836.097 329.522 836.097C339.131 836.097 348.534 835.089 357.633 833.174C366.731 831.26 375.526 828.439 383.917 824.815C392.308 821.19 400.297 816.762 407.783 811.632C415.27 806.502 422.254 800.671 428.638 794.241C435.023 787.81 440.806 780.781 445.89 773.255C450.975 765.728 455.36 757.705 458.947 749.288C462.534 740.871 465.323 732.059 467.215 722.955C469.107 713.851 470.103 704.455 470.103 694.869L470.103 689.924L470.103 684.979L470.103 680.034L470.103 675.09L470.103 670.145L470.103 665.2L470.103 660.256L470.103 655.311L480.62 655.311L491.138 655.311L501.656 655.311L512.173 655.311L522.691 655.311L533.208 655.311L543.726 655.311L554.243 655.311L554.243 660.256L554.243 665.2L554.243 670.145L554.243 675.09L554.243 680.034L554.243 684.979L554.243 689.924L554.243 694.869C554.243 704.455 555.234 713.851 557.117 722.955C559 732.059 561.777 740.871 565.351 749.288C568.924 757.705 573.294 765.728 578.365 773.255C583.435 780.781 589.205 787.81 595.578 794.241C601.951 800.671 608.928 806.502 616.411 811.632C623.894 816.762 631.884 821.19 640.283 824.815C648.683 828.439 657.492 831.26 666.614 833.174C675.737 835.089 685.172 836.097 694.824 836.097C704.649 836.097 714.225 835.094 723.462 833.189C732.698 831.283 741.593 828.474 750.058 824.863C758.522 821.252 766.555 816.839 774.065 811.723C781.575 806.608 788.563 800.79 794.936 794.371C801.309 787.951 807.069 780.93 812.122 773.407C817.176 765.884 821.525 757.86 825.077 749.434C828.629 741.009 831.384 732.182 833.251 723.054C835.118 713.927 836.097 704.498 836.097 694.869C836.097 685.109 835.113 675.599 833.237 666.428C831.362 657.256 828.596 648.422 825.033 640.016C821.471 631.609 817.111 623.629 812.049 616.166C806.987 608.702 801.223 601.754 794.849 595.41C788.476 589.066 781.494 583.327 773.998 578.282C766.501 573.236 758.49 568.884 750.058 565.313C741.626 561.743 732.773 558.955 723.594 557.037C714.415 555.12 704.909 554.074 695.17 553.987L690.063 553.944L684.956 553.9L679.849 553.857L674.741 553.813L669.634 553.77L664.527 553.727L659.419 553.683L654.312 553.64L654.312 543.273L654.312 532.907L654.312 522.54L654.312 512.173L654.312 501.807L654.312 491.44L654.312 481.074L654.312 470.707L659.419 470.664L664.527 470.62L669.634 470.577L674.741 470.534L679.849 470.49L684.956 470.447L690.063 470.403L695.17 470.36C704.909 470.23 714.415 469.151 723.594 467.21C732.773 465.269 741.626 462.466 750.058 458.887C758.49 455.309 766.501 450.955 773.998 445.913C781.494 440.871 788.476 435.14 794.849 428.807C801.223 422.474 806.987 415.54 812.049 408.09C817.111 400.64 821.471 392.676 825.033 384.283C828.596 375.889 831.362 367.068 833.237 357.905C835.113 348.742 836.097 339.238 836.097 329.478C836.097 319.806 835.118 310.339 833.251 301.178C831.384 292.017 828.629 283.162 825.077 274.712C821.525 266.262 817.176 258.217 812.122 250.678C807.069 243.138 801.309 236.103 794.936 229.673C788.563 223.242 781.575 217.416 774.065 212.295C766.555 207.173 758.522 202.756 750.058 199.142C741.593 195.528 732.698 192.719 723.462 190.812C714.225 188.906 704.649 187.903 694.824 187.903C685.172 187.903 675.737 188.911 666.614 190.826C657.492 192.742 648.683 195.564 640.283 199.191C631.884 202.818 623.894 207.25 616.411 212.386C608.928 217.522 601.951 223.362 595.578 229.803C589.205 236.244 583.435 243.287 578.365 250.83C573.294 258.373 568.924 266.417 565.351 274.858C561.777 283.3 559 292.141 557.117 301.278C555.234 310.415 554.243 319.849 554.243 329.478L554.243 334.423L554.243 339.368L554.243 344.313L554.243 349.257L554.243 354.202L554.243 359.147L554.243 364.091L554.243 369.036L543.726 369.036L533.208 369.036L522.691 369.036L512.173 369.036L501.656 369.036L491.138 369.036L480.62 369.036L470.103 369.036L470.103 364.091L470.103 359.147L470.103 354.202L470.103 349.257L470.103 344.313L470.103 339.368L470.103 334.423L470.103 329.478C470.103 319.849 469.107 310.415 467.215 301.278C465.323 292.141 462.534 283.3 458.947 274.858C455.36 266.417 450.975 258.373 445.89 250.83C440.806 243.287 435.023 236.244 428.638 229.803C422.254 223.362 415.27 217.522 407.783 212.386C400.297 207.25 392.308 202.818 383.917 199.191C375.526 195.564 366.731 192.742 357.633 190.826C348.534 188.911 339.131 187.903 329.522 187.903C319.654 187.903 310.04 188.906 300.77 190.812C291.501 192.719 282.577 195.528 274.088 199.142C265.6 202.756 257.546 207.173 250.019 212.295C242.492 217.416 235.491 223.242 229.107 229.673C222.723 236.103 216.956 243.138 211.896 250.678C206.836 258.217 202.483 266.262 198.929 274.712C195.374 283.162 192.618 292.017 190.75 301.178C188.882 310.339 187.903 319.806 187.903 329.478C187.903 339.238 188.887 348.742 190.763 357.905C192.638 367.068 195.404 375.889 198.967 384.283C202.529 392.676 206.889 400.64 211.951 408.09C217.013 415.54 222.777 422.474 229.151 428.807C235.524 435.14 242.506 440.871 250.002 445.913C257.499 450.955 265.51 455.309 273.942 458.887C282.374 462.466 291.227 465.269 300.406 467.21C309.585 469.151 319.091 470.23 328.83 470.36L333.98 470.403L339.131 470.447L344.281 470.49L349.432 470.534L354.582 470.577L359.733 470.62L364.884 470.664L370.034 470.707Z" fill="#3043ff" fill-rule="evenodd" opacity="1" stroke="none"/>
        </g>
    </g>
    </svg>