<?xml version="1.0" encoding="UTF-8" standalone="no"?>
<!DOCTYPE svg PUBLIC "-//W3C//DTD SVG 1.1//EN" "http://www.w3.org/Graphics/SVG/1.1/DTD/svg11.dtd">

<svg
    height="100%"
    stroke-miterlimit="10"
    style="fill-rule: nonzero; clip-rule: evenodd; stroke-linecap: round; stroke-linejoin: round;"
    version="1.1"
    viewBox="0 0 1024 1024"
    width="100%"
    xml:space="preserve"
    xmlns="http://www.w3.org/2000/svg"
    xmlns:xlink="http://www.w3.org/1999/xlink"
>
    <defs />
    <g id="Layer-1">
        <g opacity="1">
            <path
                d="M512 36.02C468.905 36.02 433.97 70.955 433.97 114.049C433.97 157.144 468.905 192.079 512 192.079C555.095 192.079 590.03 157.144 590.03 114.049C590.03 70.955 555.095 36.02 512 36.02ZM512 831.921C468.905 831.921 433.97 866.856 433.97 909.951C433.97 953.045 468.905 987.98 512 987.98C555.095 987.98 590.03 953.045 590.03 909.951C590.03 866.856 555.095 831.921 512 831.921ZM863.133 636.847C820.038 636.847 785.103 671.782 785.103 714.877C785.103 757.971 820.038 792.906 863.133 792.906C906.227 792.906 941.162 757.971 941.162 714.877C941.162 671.782 906.227 636.847 863.133 636.847ZM863.133 231.094C820.038 231.094 785.103 266.029 785.103 309.123C785.103 352.218 820.038 387.153 863.133 387.153C906.227 387.153 941.162 352.218 941.162 309.123C941.162 266.029 906.227 231.094 863.133 231.094ZM160.867 231.094C117.773 231.094 82.8377 266.029 82.8377 309.123C82.8377 352.218 117.773 387.153 160.867 387.153C203.962 387.153 238.897 352.218 238.897 309.123C238.897 266.029 203.962 231.094 160.867 231.094ZM160.867 636.847C117.773 636.847 82.8377 671.782 82.8377 714.877C82.8377 757.971 117.773 792.906 160.867 792.906C203.962 792.906 238.897 757.971 238.897 714.877C238.897 671.782 203.962 636.847 160.867 636.847Z"
                fill="#ffbc00"
                fill-rule="nonzero"
                opacity="1"
                stroke="none"
            />
            <path
                d="M160.867 558.818C147.602 558.818 137.458 548.674 137.458 535.409L137.458 488.591C137.458 475.326 147.602 465.182 160.867 465.182C174.132 465.182 184.276 475.326 184.276 488.591L184.276 535.409C184.276 548.674 173.352 558.818 160.867 558.818ZM356.721 851.428C352.82 851.428 348.918 850.648 345.017 848.307L304.441 824.898C293.517 818.656 289.616 803.83 295.858 792.906C302.101 781.982 316.926 778.081 327.85 784.323L368.426 807.732C379.35 813.974 383.251 828.8 377.009 839.724C372.327 847.527 364.524 851.428 356.721 851.428ZM667.279 851.428C659.476 851.428 651.673 847.527 646.991 839.724C640.749 828.8 644.65 813.974 655.574 807.732L696.15 784.323C707.074 778.081 721.899 781.982 728.142 792.906C734.384 803.83 730.483 818.656 719.559 824.898L678.983 848.307C675.082 850.648 671.18 851.428 667.279 851.428ZM863.133 558.818C849.868 558.818 839.724 548.674 839.724 535.409L839.724 488.591C839.724 475.326 849.868 465.182 863.133 465.182C876.398 465.182 886.542 475.326 886.542 488.591L886.542 535.409C886.542 548.674 876.398 558.818 863.133 558.818ZM707.854 242.798C703.953 242.798 700.051 242.018 696.15 239.677L655.574 216.268C644.65 210.026 640.749 195.2 646.991 184.276C653.233 173.352 668.059 169.45 678.983 175.693L719.559 199.102C730.483 205.344 734.384 220.17 728.142 231.094C724.24 238.897 715.657 242.798 707.854 242.798ZM316.146 242.798C308.343 242.798 300.54 238.897 295.858 231.094C289.616 220.17 293.517 205.344 304.441 199.102L345.017 175.693C355.941 169.45 370.767 173.352 377.009 184.276C383.251 195.2 379.35 210.026 368.426 216.268L327.85 239.677C323.949 242.018 320.047 242.798 316.146 242.798ZM512 215.488C455.819 215.488 410.562 170.231 410.562 114.049C410.562 57.8682 455.819 12.6111 512 12.6111C568.181 12.6111 613.438 57.8682 613.438 114.049C613.438 170.231 568.181 215.488 512 215.488ZM512 59.4288C481.568 59.4288 457.379 83.618 457.379 114.049C457.379 144.481 481.568 168.67 512 168.67C542.432 168.67 566.621 144.481 566.621 114.049C566.621 83.618 542.432 59.4288 512 59.4288ZM512 1011.39C455.819 1011.39 410.562 966.132 410.562 909.951C410.562 853.769 455.819 808.512 512 808.512C568.181 808.512 613.438 853.769 613.438 909.951C613.438 966.132 568.181 1011.39 512 1011.39ZM512 855.33C481.568 855.33 457.379 879.519 457.379 909.951C457.379 940.382 481.568 964.571 512 964.571C542.432 964.571 566.621 940.382 566.621 909.951C566.621 879.519 542.432 855.33 512 855.33Z"
                fill="#ffbc00"
                fill-rule="nonzero"
                opacity="1"
                stroke="none"
            />
            <path
                d="M863.133 816.315C806.952 816.315 761.694 771.058 761.694 714.877C761.694 658.695 806.952 613.438 863.133 613.438C919.314 613.438 964.571 658.695 964.571 714.877C964.571 771.058 919.314 816.315 863.133 816.315ZM863.133 660.256C832.701 660.256 808.512 684.445 808.512 714.877C808.512 745.308 832.701 769.497 863.133 769.497C893.564 769.497 917.753 745.308 917.753 714.877C917.753 684.445 893.564 660.256 863.133 660.256Z"
                fill="#ffbc00"
                fill-rule="nonzero"
                opacity="1"
                stroke="none"
            />
            <path
                d="M863.133 410.562C806.952 410.562 761.694 365.305 761.694 309.123C761.694 252.942 806.952 207.685 863.133 207.685C919.314 207.685 964.571 252.942 964.571 309.123C964.571 365.305 919.314 410.562 863.133 410.562ZM863.133 254.503C832.701 254.503 808.512 278.692 808.512 309.123C808.512 339.555 832.701 363.744 863.133 363.744C893.564 363.744 917.753 339.555 917.753 309.123C917.753 278.692 893.564 254.503 863.133 254.503Z"
                fill="#ffbc00"
                fill-rule="nonzero"
                opacity="1"
                stroke="none"
            />
            <path
                d="M160.867 410.562C104.686 410.562 59.4288 365.305 59.4288 309.123C59.4288 252.942 104.686 207.685 160.867 207.685C217.048 207.685 262.306 252.942 262.306 309.123C262.306 365.305 217.048 410.562 160.867 410.562ZM160.867 254.503C130.436 254.503 106.247 278.692 106.247 309.123C106.247 339.555 130.436 363.744 160.867 363.744C191.299 363.744 215.488 339.555 215.488 309.123C215.488 278.692 191.299 254.503 160.867 254.503Z"
                fill="#ffbc00"
                fill-rule="nonzero"
                opacity="1"
                stroke="none"
            />
            <path
                d="M160.867 816.315C104.686 816.315 59.4288 771.058 59.4288 714.877C59.4288 658.695 104.686 613.438 160.867 613.438C217.048 613.438 262.306 658.695 262.306 714.877C262.306 771.058 217.048 816.315 160.867 816.315ZM160.867 660.256C130.436 660.256 106.247 684.445 106.247 714.877C106.247 745.308 130.436 769.497 160.867 769.497C191.299 769.497 215.488 745.308 215.488 714.877C215.488 684.445 191.299 660.256 160.867 660.256Z"
                fill="#ffbc00"
                fill-rule="nonzero"
                opacity="1"
                stroke="none"
            />
            <g opacity="1">
                <path
                    d="M345.859 469.555C345.859 485.545 338.083 496.899 322.53 503.617C332.533 507.34 339.981 512.47 344.873 519.005C349.765 525.54 352.211 533.59 352.211 543.155C352.211 575.282 328.116 591.345 279.926 591.345L203.259 591.345L203.259 563.307L223.63 563.307L223.63 454.331L203.259 454.331L203.259 426.293L279.926 426.293C302.195 426.293 318.752 429.871 329.595 437.026C340.437 444.182 345.859 455.025 345.859 469.555ZM303.035 471.745C303.035 465.32 300.717 460.811 296.08 458.219C291.444 455.627 284.927 454.331 276.53 454.331L266.454 454.331L266.454 491.569L279.707 491.569C287.519 491.569 293.36 490.072 297.23 487.079C301.1 484.085 303.035 478.974 303.035 471.745ZM308.183 541.95C308.183 533.918 305.864 528.15 301.228 524.645C296.591 521.14 288.614 519.388 277.297 519.388L266.454 519.388L266.454 563.307L283.321 563.307C290.914 563.307 296.957 561.591 301.447 558.159C305.937 554.728 308.183 549.324 308.183 541.95Z"
                    fill="#ffbc00"
                    fill-rule="nonzero"
                    opacity="1"
                    stroke="none"
                />
                <path
                    d="M433.218 454.331L459.942 533.517L485.242 454.331L470.018 454.331L470.018 426.293L529.49 426.293L529.49 454.331L514.266 454.331L541.318 533.517L567.385 454.331L550.737 454.331L550.737 426.293L616.999 426.293L616.999 454.331L599.037 454.331L553.256 592.221L522.699 592.221L496.742 516.869L472.099 592.221L440.447 592.221L393.352 454.331L375.828 454.331L375.828 426.293L450.304 426.293L450.304 454.331L433.218 454.331Z"
                    fill="#ffbc00"
                    fill-rule="nonzero"
                    opacity="1"
                    stroke="none"
                />
                <path
                    d="M817.934 510.845C817.934 528.15 814.265 542.826 806.927 554.874C799.589 566.921 789.458 576.012 776.534 582.145C763.611 588.278 748.679 591.345 731.739 591.345L640.725 591.345L640.725 563.307L665.806 563.307L665.806 454.331L640.725 454.331L640.725 426.293L729.768 426.293C746.781 426.293 761.877 429.195 775.056 435C788.235 440.805 798.676 450.041 806.38 462.709C814.083 475.378 817.934 491.423 817.934 510.845ZM773.03 509.421C773.03 491.24 768.813 477.513 760.38 468.24C751.946 458.967 739.552 454.331 723.196 454.331L708.63 454.331L708.63 563.307L718.706 563.307C733.528 563.307 744.937 560.806 752.932 555.805C760.927 550.803 766.276 544.451 768.977 536.748C771.679 529.044 773.03 519.936 773.03 509.421Z"
                    fill="#ffbc00"
                    fill-rule="nonzero"
                    opacity="1"
                    stroke="none"
                />
            </g>
        </g>
    </g>
</svg>
